<svg xmlns="http://www.w3.org/2000/svg" width="123" height="75" xmlns:xlink="http://www.w3.org/1999/xlink">
  <defs>
    <path id="path-1" d="M8.95039216 9.38631373c-11.78 11.77999997-11.78 30.87843137 0 42.65721567 11.77878434 11.78 30.87721564 11.78 42.65721564 0 11.78-11.7787843 11.78-30.8772157 0-42.65721567C45.7188235 3.4975294 37.998.55192157 30.2796078.55192157 22.5587843.55070587 14.8403922 3.49631373 8.95039216 9.38631373z"/>
    <path id="path-3" d="M.75494118 30.7155294c0 16.658549 13.50505882 30.1636079 30.16360782 30.1636079s30.1636079-13.5050589 30.1636079-30.1636079c0-16.6597647-13.5050589-30.16360783-30.1636079-30.16360783S.75494118 14.0557647.75494118 30.7155294z"/>
    <path id="path-5" d="M.75494118 30.7155294c0 16.658549 13.50505882 30.1636079 30.16360782 30.1636079s30.1636079-13.5050589 30.1636079-30.1636079c0-16.6597647-13.5050589-30.16360783-30.1636079-30.16360783S.75494118 14.0557647.75494118 30.7155294z"/>
  </defs>
  <g id="OBS" fill="none" fill-rule="evenodd">
    <g id="img_no_friends_dark_theme">
      <g id="Group">
        <g id="Group-5" fill="#272A2D">
          <path id="Fill-1" d="M45.8093435 73.7773527h-12.792428c-2.7728642 0-5.02057613-2.25059997-5.02057613-5.027027 0-2.77642702 2.24771193-5.02702702 5.02057613-5.02702702h12.792428c2.7728642 0 5.0205761 2.2506 5.0205761 5.02702702 0 2.77642703-2.2477119 5.027027-5.0205761 5.027027"/>
          <path id="Fill-3" d="M99.1767624 73.7773527h-12.792428c-2.7728642 0-5.0205761-2.25059997-5.0205761-5.027027 0-2.77642702 2.2477119-5.02702702 5.0205761-5.02702702h12.792428c2.7728642 0 5.0205761 2.2506 5.0205761 5.02702702 0 2.77642703-2.2477119 5.027027-5.0205761 5.027027"/>
        </g>
        <g id="Page-1">
          <g id="Group-3" transform="translate(62)">
            <mask id="mask-2" fill="#fff">
              <use xlink:href="#path-1"/>
            </mask>
            <path id="Fill-1" fill="#1F2123" d="M-6.48687843 70.5364275c-21.14929407-21.1492942-21.14929407-55.4377255 0-76.58701966 21.14929413-21.14929414 55.43894113-21.14929414 76.58701963 0 21.1492941 21.14929416 21.1492941 55.43772546 0 76.58701966-21.1480785 21.1492941-55.4377255 21.1492941-76.58701963 0" mask="url(#mask-2)"/>
          </g>
          <g id="Group-8">
            <path id="Stroke-4" stroke="#0F1011" stroke-width="2" d="M121.181698 39.3650157c3.0659608-10.2761961.5409804-21.8641177-7.5737255-29.97882354-11.78-11.78-30.8784313-11.78-42.65843132 0-11.77878432 11.78000004-11.77878432 30.87843134 0 42.65721564 6.71666662 6.7166667 15.81243132 9.6039216 24.57388232 8.6617647m7.3962353-1.7578823c3.8974902-1.4661177 7.5518432-3.7674118 10.6883137-6.9038824" stroke-linecap="round" stroke-linejoin="round"/>
            <path id="Fill-6" fill="#0F1011" d="M91.9869922 39.3208863c2.6684313 0 4.6050196 2.6842353 2.9735686 5.8717647-.0498432.0984706-.1264314.1908627-.2151765.2577255-3.0501568 2.3292549-6.3325098.3087843-6.3325098-2.5553726 0-2.0812549 1.5840392-3.5741176 3.5741177-3.5741176zm-8.0624314-19.115451c-.2954118-.2492157-.3440392-.6953726-.0960392-.992 2.5480784-3.0367843 5.6602353-4.2500392 8.6107059-4.2500392 12.1203921 0 14.4508627 16.2877647 3.0538039 18.4553333-.306353.058353-.5470589.2990588-.5847451.6102745l-.3124314 2.542c-.0437647.3561961-.3464706.6248628-.7063137.6248628h-4.1673726c-.3780784 0-.6905098-.2966275-.7099608-.6747059l-.3258039-6.3507451c-.023098-.4485882.372-.8096471.8145098-.7391373.8825883.139804 1.5974118.139804 1.9438824.139804 6.3312941 0 6.5574117-9.2258432-.1373726-8.637451-1.2181176.1179215-2.4362353.6467451-3.4185098 1.7335686-.2528627.2808235-.6868627.3075686-.9761961.062l-2.9881568-2.5237647z"/>
          </g>
          <g id="Group-14" transform="translate(10)">
            <g id="Group-11">
              <mask id="mask-4" fill="#fff">
                <use xlink:href="#path-3"/>
              </mask>
              <path id="Fill-9" fill="#1F2123" d="M93.7227255 45.531098c0 29.9095295-24.2456471 54.1551765-54.1551765 54.1551765-29.9095294 0-54.1551765-24.245647-54.1551765-54.1551765 0-29.9095294 24.2456471-54.15517643 54.1551765-54.15517643 29.9095294 0 54.1551765 24.24564703 54.1551765 54.15517643" mask="url(#mask-4)"/>
            </g>
            <mask id="mask-6" fill="#fff">
              <use xlink:href="#path-5"/>
            </mask>
            <path id="Fill-12" fill="#2E3136" d="M-11.8492941 73.1527059h96.5230588V45.1797647h-96.5230588z" mask="url(#mask-6)"/>
          </g>
          <g id="Group-45">
            <path id="Stroke-15" stroke="#0F1011" stroke-width="2" d="M56.0973377 5.2935843C51.4183541 2.2920549 45.8574361.55119217 39.8889115.55119217 23.2656.55119217 9.7891082 14.056251 9.7891082 30.7148S23.2656 60.8784078 39.8889115 60.8784078c3.7460983 0 7.3320655-.685647 10.6402295-1.9390196C61.9020918 54.6322118 69.9887148 43.6205255 69.9887148 30.7148c0-5.7732941-1.6182951-11.1685098-4.4266558-15.7540784" stroke-linecap="round" stroke-linejoin="round"/>
            <path id="Fill-17" fill="#2E3136" d="M21.9101869 55.9783412h35.2725246c6.1262295 0 11.1388196-5.0232157 11.1388196-11.1624314V23.2362627c0-6.1392156-5.0125901-11.1624313-11.1388196-11.1624313H21.9101869c-6.1262295 0-11.1388197 5.0232157-11.1388197 11.1624313v21.5796471c0 6.1392157 5.0125902 11.1624314 11.1388197 11.1624314"/>
            <path id="Stroke-19" stroke="#0F1011" stroke-width="2" d="M40.9236984 55.9783412h16.259377c6.1262295 0 11.1376066-5.0232157 11.1376066-11.1624314V23.2362627c0-6.1392156-5.0113771-11.1624313-11.1376066-11.1624313H21.9105508c-6.1262295 0-11.1388197 5.0232157-11.1388197 11.1624313v21.5796471c0 6.1392157 5.0125902 11.1624314 11.1388197 11.1624314h8.4736066" stroke-linecap="round" stroke-linejoin="round"/>
            <path id="Fill-21" fill="#2E3136" d="M8.0820131 38.408149h6.9948197V18.316502H8.0820131c-4.10154097 0-7.4254754 3.3309804-7.4254754 7.4412156v5.2092157c0 4.1090196 3.32393443 7.4412157 7.4254754 7.4412157"/>
            <path id="Stroke-23" stroke="#0F1011" stroke-width="2" d="M15.0769541 18.3162588H8.08213443c-1.35262295 0-2.621541.3622745-3.71334427.9956471-1.11.6443137-2.03803278 1.5670196-2.6882623 2.6732941-.6514426 1.1062745-1.02386884 2.3961176-1.02386884 3.7722745v5.2092157c0 4.1102353 3.32393442 7.4412157 7.4254754 7.4412157h6.99481968" stroke-linecap="round" stroke-linejoin="round"/>
            <path id="Fill-25" fill="#1F2123" d="M15.0769541 33.943298V22.7808667c0-.410902-.3323934-.744-.7424262-.744H8.08213443c-2.05016394 0-3.71334427 1.6654902-3.71334427 3.7212157v5.2092156c0 2.0545098 1.66318033 3.72 3.71334427 3.72h6.25239347c.4100328 0 .7424262-.333098.7424262-.744"/>
            <path id="Stroke-27" stroke="#0F1011" stroke-width="2" d="M15.0769541 22.0369882H8.08213443c-2.05016394 0-3.71334427 1.6654902-3.71334427 3.7212157v5.208c0 2.0557255 1.66318033 3.7212157 3.71334427 3.7212157h3.28147537" stroke-linecap="round" stroke-linejoin="round"/>
            <path id="Fill-29" fill="#0F1011" d="M30.2599344 33.7571765h.2474754c1.3611148 0 2.4747541-1.116 2.4747541-2.48v-.248c0-1.3652157-1.1136393-2.4812157-2.4747541-2.4812157h-.2474754c-1.3611147 0-2.4747541 1.116-2.4747541 2.4812157v.248c0 1.364 1.1136394 2.48 2.4747541 2.48"/>
            <path id="Stroke-31" stroke="#0F1011" stroke-width="2" d="M60.5537148 48.1647608h-4.4557705" stroke-linecap="round" stroke-linejoin="round"/>
            <path id="Fill-33" fill="#3C3F44" d="M50.4078295 44.0720314h11.5355082c6.1262295 0 11.1388197-5.0232157 11.1388197-11.1624314v-4.8372157c0-2.4556863-2.0052787-4.464-4.4557705-4.464H43.7247803c-2.4504918 0-4.4557705 2.0083137-4.4557705 4.464V32.9096c0 6.1392157 5.0125902 11.1624314 11.1388197 11.1624314"/>
            <path id="Fill-35" fill="#1F2123" d="M57.4529934 35.6506078h-4.5661639c-1.0214426 0-1.8560656.8376079-1.8560656 1.86 0 1.0236079.834623 1.8612157 1.8560656 1.8612157h4.5661639c1.0214427 0 1.8560656-.8376078 1.8560656-1.8612157 0-1.0223921-.8346229-1.86-1.8560656-1.86"/>
            <path id="Fill-37" fill="#1F2123" d="M66.4192459 35.6506078h-1.8366557c-1.0214427 0-1.8560656.8376079-1.8560656 1.86 0 1.0236079.8346229 1.8612157 1.8560656 1.8612157h1.8366557c1.0214426 0 1.8560656-.8376078 1.8560656-1.8612157 0-1.0223921-.834623-1.86-1.8560656-1.86"/>
            <path id="Stroke-39" stroke="#0F1011" stroke-width="2" d="M55.631623 23.6080196H43.3791639c-2.4504918 0-4.4557705 2.0095294-4.4557705 4.4652157v4.836c0 6.1392157 5.0125902 11.1624314 11.1388197 11.1624314H61.943459c6.1262295 0 11.1388197-5.0232157 11.1388197-11.1624314v-4.836c0-2.4556863-2.0052787-4.4652157-4.4557705-4.4652157h-4.1743279" stroke-linecap="round" stroke-linejoin="round"/>
            <path id="Fill-41" fill="#0F1011" d="M57.4529934 35.6506078h-4.5661639c-1.0214426 0-1.8560656.8376079-1.8560656 1.86 0 1.0236079.834623 1.8612157 1.8560656 1.8612157h4.5661639c1.0214427 0 1.8560656-.8376078 1.8560656-1.8612157 0-1.0223921-.8346229-1.86-1.8560656-1.86"/>
            <path id="Fill-43" fill="#0F1011" d="M66.4192459 35.6506078h-1.8366557c-1.0214427 0-1.8560656.8376079-1.8560656 1.86 0 1.0236079.8346229 1.8612157 1.8560656 1.8612157h1.8366557c1.0214426 0 1.8560656-.8376078 1.8560656-1.8612157 0-1.0223921-.834623-1.86-1.8560656-1.86"/>
          </g>
        </g>
        <path id="Rectangle-33" d="M0 0h123v75H0z"/>
      </g>
    </g>
  </g>
</svg>