<svg xmlns="http://www.w3.org/2000/svg" width="123" height="75" xmlns:xlink="http://www.w3.org/1999/xlink">
  <defs>
    <path id="path-1" d="M9.22530864 9.23917297c-11.76471605 11.77882703-11.764214 30.87650273 0 42.65583243 11.76320986 11.778827 30.83637856 11.778827 42.60059256 0 11.763712-11.7793297 11.763712-30.8770054 0-42.65583243C45.9437942 3.3495081 38.2346996.40467567 30.5251029.40467567c-7.7090947 0-15.4181893 2.94483244-21.29979426 8.8344973"/>
    <path id="path-3" d="M.26106996 30.5668378C.26106996 47.2248973 13.7478436 60.729 30.3845267 60.729c16.6366832 0 30.1234568-13.5041027 30.1234568-30.1621622 0-16.6580594-13.4867736-30.16216212-30.1234568-30.16216212C13.7478436.40467568.26106996 13.9087784.26106996 30.5668378"/>
    <path id="path-5" d="M.26106996 30.5668378C.26106996 47.2248973 13.7478436 60.729 30.3845267 60.729c16.6366832 0 30.1234568-13.5041027 30.1234568-30.1621622 0-16.6580594-13.4867736-30.16216212-30.1234568-30.16216212C13.7478436.40467568.26106996 13.9087784.26106996 30.5668378z"/>
  </defs>
  <g id="OBS" fill="none" fill-rule="evenodd">
    <g id="img_no_friends">
      <g id="Group">
        <g id="empty-no-friends">
          <g id="Friends-List">
            <g id="Desktop-HD---Empty-Profile">
              <g id="empty-no-friends">
                <g id="Page-1">
                  <g id="Group-5" fill="#EFF1F4">
                    <path id="Fill-1" d="M45.8093435 73.7773527h-12.792428c-2.7728642 0-5.02057613-2.25059997-5.02057613-5.027027 0-2.77642702 2.24771193-5.02702702 5.02057613-5.02702702h12.792428c2.7728642 0 5.0205761 2.2506 5.0205761 5.02702702 0 2.77642703-2.2477119 5.027027-5.0205761 5.027027"/>
                    <path id="Fill-3" d="M99.1767624 73.7773527h-12.792428c-2.7728642 0-5.0205761-2.25059997-5.0205761-5.027027 0-2.77642702 2.2477119-5.02702702 5.0205761-5.02702702h12.792428c2.7728642 0 5.0205761 2.2506 5.0205761 5.02702702 0 2.77642703-2.2477119 5.027027-5.0205761 5.027027"/>
                  </g>
                  <g id="Group-8">
                    <g id="mask-2" fill="#FFF">
                      <path id="path-1" d="M70.47633764 9.23917297c-11.76471605 11.77882703-11.764214 30.87650273 0 42.65583243 11.76320986 11.778827 30.83637856 11.778827 42.60059256 0 11.763712-11.7793297 11.763712-30.8770054 0-42.65583243-5.882107-5.88966486-13.5912016-8.8344973-21.3007983-8.8344973-7.7090947 0-15.4181893 2.94483244-21.29979426 8.8344973"/>
                    </g>
                    <g id="Fill-6-Clipped" transform="translate(61.25)">
                      <mask id="mask-2" fill="#fff">
                        <use xlink:href="#path-1"/>
                      </mask>
                      <path id="Fill-6" fill="#C9CBCE" d="M-6.1914247 70.3865724c-21.1210617-21.1482-21.1210617-55.4355405 0-76.5837405 21.1210617-21.1482 55.3644033-21.1482 76.485465 0 21.1210618 21.1482 21.1210618 55.4355405 0 76.5837405-21.1210617 21.1482-55.3644033 21.1482-76.485465 0" mask="url(#mask-2)"/>
                    </g>
                  </g>
                  <g id="Group-13">
                    <path id="Stroke-9" stroke="#778087" stroke-width="2" d="M120.6407796 39.2164411c3.0615473-10.275746.540214-21.8630433-7.564-29.9776703-11.7637119-11.77882702-30.8368806-11.77882702-42.60059258 0-11.764214 11.7793297-11.764214 30.8770054 0 42.6558324 6.70698768 6.7161082 15.79071608 9.6031298 24.54057618 8.6605622m7.3857695-1.7569459c3.8924527-1.4663838 7.5424115-3.7672541 10.6742469-6.9036163"/>
                    <path id="Fill-11" fill="#778087" d="M91.4849385 39.1723038c2.6649218 0 4.5988477 2.6844324 2.9696707 5.8715676-.0502057.0985297-.1265185.1900216-.2148806.2573837-3.0464856 2.3295244-6.3234156.3086595-6.3234156-2.5557405 0-2.0806865 1.5814814-3.5732108 3.5686255-3.5732108zm-8.052-19.1142649c-.2947079-.2493405-.3439095-.6962432-.095893-.9923351 2.5444279-3.0373297 5.6526666-4.2503514 8.5997448-4.2503514 12.104107 0 14.430642 16.2870649 3.05 18.4552217-.3067572.0583135-.5467407.2996108-.5848971.6097783l-.3112757 2.5421676c-.043679.3564162-.3464198.6243568-.7048889.6243568H89.223671c-.3780494 0-.6903292-.2965946-.7094074-.6746271l-.3248313-6.3506432c-.0230947-.4474054.3705185-.8093514.8128313-.738973.8816131.1407568 1.5955391.1407568 1.9409547.1407568 6.3234156 0 6.5488395-9.2256-.1365597-8.6379406-1.2169876.1181352-2.4339753.6464757-3.4139917 1.7333189-.2535391.2815136-.6863128.3076541-.975498.0628379l-2.9842304-2.5235676z"/>
                  </g>
                  <g id="Group-19">
                    <g id="Group-16">
                      <g id="mask-4" fill="#FFF">
                        <path id="path-3" d="M10.30222196 30.5668378c0 16.6580595 13.48677364 30.1621622 30.12345674 30.1621622 16.6366832 0 30.1234568-13.5041027 30.1234568-30.1621622 0-16.6580594-13.4867736-30.16216212-30.1234568-30.16216212-16.6366831 0-30.12345674 13.50410272-30.12345674 30.16216212"/>
                      </g>
                      <g id="Fill-14-Clipped" transform="translate(10.04)">
                        <mask id="mask-4" fill="#fff">
                          <use xlink:href="#path-3"/>
                        </mask>
                        <path id="Fill-14" fill="#ECEEF1" d="M93.105028 45.3822908c0 29.9077946-24.2137366 54.1526433-54.0831523 54.1526433-29.86941562 0-54.0836543-24.2448487-54.0836543-54.1526433 0-29.9077946 24.21423868-54.15264323 54.0836543-54.15264323 29.8694157 0 54.0831523 24.24484863 54.0831523 54.15264323" mask="url(#mask-4)"/>
                      </g>
                    </g>
                    <g id="mask-6" fill="#FFF">
                      <path id="path-5" d="M10.30106996 30.5668378c0 16.6580595 13.48677364 30.1621622 30.12345674 30.1621622 16.6366832 0 30.1234568-13.5041027 30.1234568-30.1621622 0-16.6580594-13.4867736-30.16216212-30.1234568-30.16216212-16.6366831 0-30.12345674 13.50410272-30.12345674 30.16216212z"/>
                    </g>
                    <g id="Fill-17-Clipped" transform="translate(10.04)">
                      <mask id="mask-6" fill="#fff">
                        <use xlink:href="#path-5"/>
                      </mask>
                      <path id="Fill-17" fill="#C9CBCE" d="M84.0680412 73.0024865h-96.3950618V45.0311027h96.3950618z" mask="url(#mask-6)"/>
                    </g>
                  </g>
                  <g id="Group-60">
                    <path id="Stroke-20" stroke="#778087" stroke-width="2" d="M55.9771646 5.14656973C51.2949753 2.1449319 45.7286626.40457513 39.7561852.40457513c-16.6366831 0-30.1234568 13.50410267-30.1234568 30.16216217s13.4867737 30.1621622 30.1234568 30.1621622c3.7493662 0 7.3380741-.6856865 10.649144-1.9384217C61.7864733 54.4828184 69.879642 43.4711157 69.879642 30.5667373c0-5.7735405-1.6201399-11.1685459-4.4301564-15.7536973"/>
                    <path id="Fill-22" fill="#C9CBCE" d="M64.6054765 36.0272951H54.2013366V17.0522789h10.4041399c4.104321 0 7.4314568 3.3314108 7.4314568 7.4415081v4.0925027c0 4.1095946-3.3271358 7.4410054-7.4314568 7.4410054"/>
                    <path id="Stroke-24" stroke="#778087" stroke-width="2" d="M64.6054765 36.0272951H54.2013366V17.0522789h10.4041399c4.104321 0 7.4314568 3.3314108 7.4314568 7.4415081v4.0925027c0 4.1095946-3.3271358 7.4410054-7.4314568 7.4410054z"/>
                    <path id="Fill-26" fill="#ECEEF1" d="M21.7631432 55.8290562H57.063316c6.1311276 0 11.1471852-5.0230054 11.1471852-11.1615081V23.0880292c0-6.1390054-5.0160576-11.1615081-11.1471852-11.1615081H21.7631432c-6.1311276 0-11.1471852 5.0225027-11.1471852 11.1615081v21.5795189c0 6.1385027 5.0160576 11.1615081 11.1471852 11.1615081"/>
                    <path id="Stroke-28" stroke="#778087" stroke-width="2" d="M44.4337556 55.8290562h12.6292592c6.1311276 0 11.1476873-5.0230054 11.1476873-11.1615081V23.0880292c0-6.1390054-5.0165597-11.1615081-11.1476873-11.1615081H21.763344c-6.1311275 0-11.1476872 5.0225027-11.1476872 11.1615081v21.5795189c0 6.1385027 5.0165597 11.1615081 11.1476872 11.1615081h8.4797531"/>
                    <path id="Fill-30" fill="#ECEEF1" d="M7.92407572 38.259647H14.924265V18.1686308H7.92407572c-4.104321 0-7.4314568 3.3314108-7.4314568 7.4410054v5.2090054c0 4.1095946 3.3271358 7.4410054 7.4314568 7.4410054"/>
                    <path id="Stroke-32" stroke="#778087" stroke-width="2" d="M14.924516 18.1685805H7.92432675c-1.35404938 0-2.6237531.3624487-3.7167325.9958541-1.11055145.6434595-2.03935804 1.5664216-2.69052676 2.6723676-.65116875 1.1064486-1.0246996 2.395881-1.0246996 3.7727837v5.2090055c0 4.1095945 3.3271358 7.4410054 7.43195884 7.4410054H14.924516"/>
                    <path id="Fill-34" fill="#DBDDE0" d="M14.924516 33.7949432V22.6334351c0-.4112108-.3328641-.7445027-.7430452-.7445027H7.92432675c-2.05241152 0-3.7157284 1.6659568-3.7157284 3.7210054v5.2085027c0 2.0550487 1.66331688 3.7205027 3.7157284 3.7205027h6.25714405c.4101811 0 .7430452-.3327891.7430452-.744"/>
                    <path id="Stroke-36" stroke="#778087" stroke-width="2" d="M14.924516 21.8891838H7.92432675c-2.05241152 0-3.7157284 1.6659567-3.7157284 3.7205027v5.2090054c0 2.0545459 1.66331688 3.7205027 3.7157284 3.7205027h3.28446095"/>
                    <path id="Fill-38" fill="#778087" d="M30.1194403 33.608893h.2475144c1.3625844 0 2.4771523-1.116 2.4771523-2.4803352v-.2478324c0-1.3643351-1.1145679-2.4808378-2.4771523-2.4808378h-.2475144c-1.3625843 0-2.4771522 1.1165027-2.4771522 2.4808378v.2478324c0 1.3643352 1.1145679 2.4803352 2.4771522 2.4803352"/>
                    <path id="Stroke-40" stroke="#778087" stroke-width="2" d="M60.4369926 48.0159h-4.4587737"/>
                    <path id="Fill-42" fill="#ECEEF1" d="M49.9373613 43.9232465h6.6884115c6.1311276 0 11.1471852-5.0230054 11.1471852-11.1615081V27.924733c0-2.4557027-2.0062222-4.4645027-4.4587736-4.4645027H43.2489498c-2.4525514 0-4.4587737 2.0088-4.4587737 4.4645027v4.8370054c0 6.1385027 5.0160576 11.1615081 11.1471852 11.1615081"/>
                    <path id="Fill-44" fill="#FFF" d="M55.1394815 43.9232465h6.6884115c6.1311276 0 11.1471852-5.0230054 11.1471852-11.1615081V27.924733c0-2.4557027-2.0062222-4.4645027-4.4587737-4.4645027H48.45107c-2.4525515 0-4.4587737 2.0088-4.4587737 4.4645027v4.8370054c0 6.1385027 5.0160576 11.1615081 11.1471852 11.1615081"/>
                    <path id="Stroke-46" stroke="#778087" stroke-width="2" d="M55.5110543 23.4601297H43.2487992c-2.4520494 0-4.4587737 2.0093027-4.4587737 4.4645027v4.8370054c0 6.1390054 5.0160576 11.1615081 11.1471852 11.1615081h11.8907325c6.1311276 0 11.1471852-5.0225027 11.1471852-11.1615081v-4.8370054c0-2.4552-2.0062222-4.4645027-4.4587737-4.4645027h-4.1776214"/>
                    <path id="Fill-48" fill="#E2E4E7" d="M57.8359325 35.5022222h-3.7157284c-1.0216872 0-1.8581152.837-1.8581152 1.8605027 0 1.023.836428 1.86 1.8581152 1.86h3.7157284c1.0216873 0 1.8581152-.837 1.8581152-1.86 0-1.0235027-.8364279-1.8605027-1.8581152-1.8605027"/>
                    <path id="Fill-50" fill="#E2E4E7" d="M67.6827885 35.5022222h-2.2296379c-1.0216872 0-1.8576132.837-1.8576132 1.8605027 0 1.023.835926 1.86 1.8576132 1.86h2.2296379c1.0216872 0 1.8581152-.837 1.8581152-1.86 0-1.0235027-.836428-1.8605027-1.8581152-1.8605027"/>
                    <path id="Fill-52" fill="#E2E4E7" d="M55.2349226 35.5022222h-2.9726831c-1.0216872 0-1.8576132.837-1.8576132 1.8605027 0 1.023.835926 1.86 1.8576132 1.86H54.8634c1.0216872 0 2.2296379-.837 2.2296379-1.86 0-1.0235027-.836428-1.8605027-1.8581153-1.8605027"/>
                    <path id="Fill-54" fill="#E2E4E7" d="M65.0817284 35.5022222h-1.4860905c-1.0221893 0-1.8581153.837-1.8581153 1.8605027 0 1.023.835926 1.86 1.8581153 1.86h1.4860905c1.0216872 0 1.8581152-.837 1.8581152-1.86 0-1.0235027-.836428-1.8605027-1.8581152-1.8605027"/>
                    <path id="Stroke-56" stroke="#778087" stroke-width="2" d="M57.3339251 35.5022222h-4.5697284c-1.0216872 0-1.8576132.837-1.8576132 1.8605027 0 1.023.835926 1.86 1.8576132 1.86h4.5697284c1.0216872 0 1.8581152-.837 1.8581152-1.86 0-1.0235027-.836428-1.8605027-1.8581152-1.8605027z"/>
                    <path id="Stroke-58" stroke="#778087" stroke-width="2" d="M66.3071004 35.5022222h-1.8380329c-1.0216873 0-1.8581152.837-1.8581152 1.8605027 0 1.023.8364279 1.86 1.8581152 1.86h1.8380329c1.0216873 0 1.8581152-.837 1.8581152-1.86 0-1.0235027-.8364279-1.8605027-1.8581152-1.8605027z"/>
                  </g>
                </g>
              </g>
            </g>
          </g>
        </g>
        <path id="Rectangle-33" d="M0 0h123v75H0z"/>
      </g>
    </g>
  </g>
</svg>