<svg xmlns="http://www.w3.org/2000/svg" width="101" height="55" viewBox="0 0 101 55">
  <g fill="none" fill-rule="evenodd">
    <g transform="translate(0 1)">
      <path fill="#424549" d="M70.6037,26.0617 C70.6037,39.8687 59.4107,51.0617 45.6037,51.0617 C35.2517,51.0617 26.3697,44.7697 22.5717,35.8017 C21.3047,32.8087 20.6037,29.5167 20.6037,26.0617 C20.6037,24.8897 20.6847,23.7357 20.8407,22.6057 C22.5237,10.4347 32.9697,1.0617 45.6037,1.0617 C59.4107,1.0617 70.6037,12.2547 70.6037,26.0617"/>
      <path stroke="#1E2126" stroke-width="2" d="M62.698 7.819C67.564 12.381 70.604 18.866 70.604 26.062 70.604 39.869 59.411 51.062 45.604 51.062M22.572 35.8014C21.305 32.8084 20.604 29.5164 20.604 26.0614 20.604 24.8894 20.685 23.7354 20.841 22.6054 22.524 10.4344 32.969 1.0614 45.604 1.0614" stroke-linecap="round" stroke-linejoin="round"/>
      <polygon fill="#FFFFFF" points="38.001 26.492 32.347 20.833 16.688 36.478 32.347 52.124 38.001 46.465 32.01 40.478 49.981 40.478 49.981 32.478 32.01 32.478"/>
      <polygon fill="#FFFFFF" points="58.861 0 53.207 5.659 59.198 11.646 41.227 11.646 41.227 19.646 59.198 19.646 53.207 25.632 58.861 31.291 74.519 15.646"/>
      <polygon stroke="#1E2126" stroke-width="2" points="38.001 26.492 32.347 20.833 16.688 36.478 32.347 52.124 38.001 46.465 32.01 40.478 49.981 40.478 49.981 32.478 32.01 32.478" stroke-linecap="round" stroke-linejoin="round"/>
      <polygon stroke="#1E2126" stroke-width="2" points="58.861 0 53.207 5.659 59.198 11.646 41.227 11.646 41.227 19.646 59.198 19.646 53.207 25.632 58.861 31.291 74.519 15.646" stroke-linecap="round" stroke-linejoin="round"/>
      <path stroke="#C5D3FF" d="M83.9885 37.0802L83.1555 37.9142M79.822 41.2467L78.989 42.0797M83.9885 42.0802L83.1555 41.2472M79.822 37.9137L78.989 37.0797" stroke-linecap="round" stroke-linejoin="round"/>
      <path stroke="#F4D862" d="M89.7068,23.0851 C89.7068,24.4661 88.5868,25.5851 87.2068,25.5851 C85.8258,25.5851 84.7068,24.4661 84.7068,23.0851 C84.7068,21.7051 85.8258,20.5851 87.2068,20.5851 C88.5868,20.5851 89.7068,21.7051 89.7068,23.0851 Z" stroke-linecap="round" stroke-linejoin="round"/>
      <path stroke="#C5D3FF" d="M15.6745,5.0617 C15.6745,6.1657 14.7785,7.0617 13.6745,7.0617 C12.5695,7.0617 11.6745,6.1657 11.6745,5.0617 C11.6745,3.9577 12.5695,3.0617 13.6745,3.0617 C14.7785,3.0617 15.6745,3.9577 15.6745,5.0617 Z" stroke-linecap="round" stroke-linejoin="round"/>
      <path stroke="#43B581" d="M97.1081 30.0289L97.1081 35.0289M99.6081 32.5289L94.6081 32.5289" stroke-linecap="round" stroke-linejoin="round"/>
      <path stroke="#7187DD" d="M2.5002 13.6456L2.5002 17.6456M4.5002 15.6456L.5002 15.6456" stroke-linecap="round" stroke-linejoin="round"/>
    </g>
    <rect width="101" height="55"/>
  </g>
</svg>
