<?xml version="1.0" encoding="UTF-8" standalone="no"?>
<svg width="113px" height="152px" viewBox="0 0 113 152" version="1.1" xmlns="http://www.w3.org/2000/svg" xmlns:xlink="http://www.w3.org/1999/xlink" xmlns:sketch="http://www.bohemiancoding.com/sketch/ns">
    <!-- Generator: Sketch 3.5.2 (25235) - http://www.bohemiancoding.com/sketch -->
    <title>empty-mentions-dark</title>
    <desc>Created with Sketch.</desc>
    <defs></defs>
    <g id="General-Playground" stroke="none" stroke-width="1" fill="none" fill-rule="evenodd" sketch:type="MSPage">
        <g id="iOS---Recent-Mentions" sketch:type="MSArtboardGroup" transform="translate(-131.000000, -515.000000)">
            <g id="empty-mentions-dark" sketch:type="MSLayerGroup" transform="translate(132.000000, 515.000000)">
                <path d="M58.6209004,47.9075908 C58.6209004,54.2800528 53.449313,59.4455446 47.0693309,59.4455446 C40.6893489,59.4455446 35.5177614,54.2800528 35.5177614,47.9075908 C35.5177614,41.5351287 40.6893489,36.369637 47.0693309,36.369637 C53.449313,36.369637 58.6209004,41.5351287 58.6209004,47.9075908 L58.6209004,47.9075908 Z" id="Stroke-1" stroke="#222426" stroke-width="2" stroke-linecap="round" stroke-linejoin="round" sketch:type="MSShapeGroup"></path>
                <path d="M59.387774,33.0849822 C63.6447785,36.6186059 66.3553794,41.9466323 66.3553794,47.9077413 C66.3553794,50.4797017 65.850626,52.9337743 64.9350386,55.1771538" id="Stroke-3" stroke="#222426" stroke-width="2" stroke-linecap="round" stroke-linejoin="round" sketch:type="MSShapeGroup"></path>
                <path d="M47.0693309,28.6442244 C49.1737256,28.6442244 51.1997704,28.9808317 53.0957345,29.6033795" id="Stroke-5" stroke="#222426" stroke-width="2" stroke-linecap="round" stroke-linejoin="round" sketch:type="MSShapeGroup"></path>
                <path d="M47.0693309,67.1709571 C36.4177794,67.1709571 27.7832323,58.5465875 27.7832323,47.9075908 C27.7832323,39.003802 33.8312323,31.5106535 42.0479139,29.3038944" id="Stroke-7" stroke="#222426" stroke-width="2" stroke-linecap="round" stroke-linejoin="round" sketch:type="MSShapeGroup"></path>
                <path d="M35.5166063,72.3122191 C26.3727857,67.9864898 20.0485525,58.6843908 20.0485525,47.9074403 C20.0485525,33.0019089 32.1460592,20.9186614 47.0691803,20.9186614 C61.9923013,20.9186614 74.0898081,33.0019089 74.0898081,47.9074403 C74.0898081,51.0964304 73.5363372,54.1559947 72.5197991,56.9953347 C72.0085166,58.424536 71.3797094,59.7975525 70.6454314,61.1033479 C66.0177722,69.3349254 57.1938798,74.8962191 47.0691803,74.8962191" id="Stroke-9" stroke="#222426" stroke-width="2" stroke-linecap="round" stroke-linejoin="round" sketch:type="MSShapeGroup"></path>
                <path d="M81.8244879,47.9075908 C81.8244879,67.0796568 66.2640215,82.6217822 47.0693309,82.6217822 C27.8746404,82.6217822 12.314174,67.0796568 12.314174,47.9075908 C12.314174,28.7355248 27.8746404,13.1933993 47.0693309,13.1933993 C60.266748,13.1933993 71.7464969,20.5405677 77.6312682,31.36367" id="Stroke-11" stroke="#222426" stroke-width="2" stroke-linecap="round" stroke-linejoin="round" sketch:type="MSShapeGroup"></path>
                <path d="M87.8101596,35.8178218 C88.9482404,39.6494257 89.5589668,43.7072739 89.5589668,47.9075908 C89.5589668,54.4455974 88.0788592,60.637967 85.4350565,66.1691617" id="Stroke-13" stroke="#222426" stroke-width="2" stroke-linecap="round" stroke-linejoin="round" sketch:type="MSShapeGroup"></path>
                <path d="M4.57964484,47.9075908 C4.57964484,24.4689901 23.6030709,5.4679868 47.0693309,5.4679868 C61.4349632,5.4679868 74.1356628,12.5889109 81.8259946,23.489769" id="Stroke-15" stroke="#222426" stroke-width="2" stroke-linecap="round" stroke-linejoin="round" sketch:type="MSShapeGroup"></path>
                <path d="M47.0693309,90.3471947 C31.9036269,90.3471947 18.5937076,82.4110891 11.0751426,70.4703102" id="Stroke-17" stroke="#222426" stroke-width="2" stroke-linecap="round" stroke-linejoin="round" sketch:type="MSShapeGroup"></path>
                <path d="M52.0255067,76.6315274 L52.0255067,47.8042007 C52.0255067,45.0526495 49.7920359,42.8218112 47.0372377,42.8218112 C44.2819372,42.8218112 42.0489686,45.0526495 42.0489686,47.8042007 L42.0489686,76.6315274 L42.0489686,80.9020752 L42.0489686,91.0665109 C42.0489686,98.0419564 45.5937937,104.540333 51.4624933,108.321772 L51.4629955,108.322273 C52.4800359,108.97793 53.094278,110.104135 53.094278,111.313112 L53.094278,151.99995 L70.9103139,151.99995 L70.9103139,111.313112 C70.9103139,110.104135 71.5245561,108.97793 72.5415964,108.322273 L72.5420987,108.321772 C78.4107982,104.540333 81.9556233,98.0419564 81.9556233,91.0665109 L81.9556233,76.6315274 L52.0255067,76.6315274 Z" id="Fill-19" fill="#424549" sketch:type="MSShapeGroup"></path>
                <path d="M52.0255067,76.6315274 L52.0255067,47.8042007 C52.0255067,45.0526495 49.7920359,42.8218112 47.0372377,42.8218112 C44.2819372,42.8218112 42.0489686,45.0526495 42.0489686,47.8042007 L42.0489686,76.6315274 L42.0489686,80.9020752 L42.0489686,91.0665109 C42.0489686,98.0419564 45.5937937,104.540333 51.4624933,108.321772 L51.4629955,108.322273 C52.4800359,108.97793 53.094278,110.104135 53.094278,111.313112 L53.094278,151.99995" id="Stroke-21" stroke="#222426" stroke-width="2" stroke-linecap="round" stroke-linejoin="round" sketch:type="MSShapeGroup"></path>
                <path d="M76.9674045,72.8150733 C74.2126063,72.8150733 71.9791354,75.0459116 71.9791354,77.7974627 L71.9791354,74.2387564 C71.9791354,71.4867036 69.7456646,69.256367 66.9908664,69.256367 C64.2355659,69.256367 62.0020951,71.4867036 62.0020951,74.2387564 L62.0020951,71.0999314 C62.0020951,68.3483802 59.7691265,66.1175419 57.013826,66.1175419 C54.2590278,66.1175419 52.025557,68.3483802 52.025557,71.0999314 L52.025557,79.308433 C52.9356197,79.5201294 53.7432251,80.2109017 53.8170547,81.3927894 C53.9079605,82.8410535 53.8532161,84.3008554 53.8230816,85.7586508 C53.9526601,86.5607894 54.0179516,87.365938 54.0470816,88.1740964 C54.103835,88.6476541 54.1359785,89.1187036 54.1831892,89.5566442 C54.2098081,89.5932647 54.2389381,89.6263736 54.263548,89.6650007 C54.4669561,89.9855551 54.6090906,90.3121294 54.7200861,90.6492383 C54.920983,90.9838389 55.1620592,91.2637597 55.4387946,91.5296343 C55.4829919,91.5722746 55.6170906,91.6801294 55.6663103,91.722268 C55.8059336,91.8200898 55.9505794,91.9113901 56.0972341,91.9971723 C56.3900413,92.168235 56.6954045,92.3142152 57.0052879,92.4531723 C57.0083013,92.4531723 57.0108126,92.4536739 57.013826,92.4536739 C59.7691265,92.4536739 62.0020951,90.2228356 62.0020951,87.4712845 L62.0020951,87.0509017 C62.0020951,89.8024528 64.2355659,92.0332911 66.9908664,92.0332911 C69.7456646,92.0332911 71.9791354,89.8024528 71.9791354,87.0509017 L71.9791354,83.4916937 C71.9791354,86.2437465 74.2126063,88.4745848 76.9674045,88.4745848 C79.7222027,88.4745848 81.9556735,86.2437465 81.9556735,83.4916937 L81.9556735,77.7974627 C81.9556735,75.0459116 79.7222027,72.8150733 76.9674045,72.8150733" id="Fill-23" fill="#3B3E42" sketch:type="MSShapeGroup"></path>
                <path d="M57.0138762,88.4403723 L57.0138762,88.4403723 C54.259078,88.4403723 52.0256072,86.209534 52.0256072,83.4579828 L52.0256072,67.0866297 C52.0256072,64.3350785 54.259078,62.1042403 57.0138762,62.1042403 L57.0138762,62.1042403 C59.7686744,62.1042403 62.0021453,64.3350785 62.0021453,67.0866297 L62.0021453,83.4579828 C62.0021453,86.209534 59.7686744,88.4403723 57.0138762,88.4403723" id="Fill-25" fill="#424549" sketch:type="MSShapeGroup"></path>
                <path d="M66.9906655,88.0200898 L66.9906655,88.0200898 C64.2358673,88.0200898 62.0023964,85.7892515 62.0023964,83.0377003 L62.0023964,70.2255551 C62.0023964,67.4735023 64.2358673,65.2431657 66.9906655,65.2431657 L66.9906655,65.2431657 C69.7454637,65.2431657 71.9789345,67.4735023 71.9789345,70.2255551 L71.9789345,83.0377003 C71.9789345,85.7892515 69.7454637,88.0200898 66.9906655,88.0200898" id="Fill-27" fill="#424549" sketch:type="MSShapeGroup"></path>
                <path d="M76.9674045,84.4611327 L76.9674045,84.4611327 C74.2126063,84.4611327 71.9791354,82.2302944 71.9791354,79.4787432 L71.9791354,73.7845122 C71.9791354,71.0324594 74.2126063,68.8016211 76.9674045,68.8016211 L76.9674045,68.8016211 C79.7222027,68.8016211 81.9556735,71.0324594 81.9556735,73.7845122 L81.9556735,79.4787432 C81.9556735,82.2302944 79.7222027,84.4611327 76.9674045,84.4611327" id="Fill-29" fill="#424549" sketch:type="MSShapeGroup"></path>
                <path d="M57.0138762,88.4403723 L57.0138762,88.4403723 C54.259078,88.4403723 52.0256072,86.209534 52.0256072,83.4579828 L52.0256072,67.0866297 C52.0256072,64.3350785 54.259078,62.1042403 57.0138762,62.1042403 L57.0138762,62.1042403 C59.7686744,62.1042403 62.0021453,64.3350785 62.0021453,67.0866297 L62.0021453,83.4579828 C62.0021453,86.209534 59.7686744,88.4403723 57.0138762,88.4403723 L57.0138762,88.4403723 Z" id="Stroke-31" stroke="#222426" stroke-width="2" stroke-linecap="round" stroke-linejoin="round" sketch:type="MSShapeGroup"></path>
                <path d="M66.9906655,88.0200898 L66.9906655,88.0200898 C64.2358673,88.0200898 62.0023964,85.7892515 62.0023964,83.0377003 L62.0023964,70.2255551 C62.0023964,67.4735023 64.2358673,65.2431657 66.9906655,65.2431657 L66.9906655,65.2431657 C69.7454637,65.2431657 71.9789345,67.4735023 71.9789345,70.2255551 L71.9789345,83.0377003 C71.9789345,85.7892515 69.7454637,88.0200898 66.9906655,88.0200898 L66.9906655,88.0200898 Z" id="Stroke-33" stroke="#222426" stroke-width="2" stroke-linecap="round" stroke-linejoin="round" sketch:type="MSShapeGroup"></path>
                <path d="M76.9674045,84.4611327 L76.9674045,84.4611327 C74.2126063,84.4611327 71.9791354,82.2302944 71.9791354,79.4787432 L71.9791354,73.7845122 C71.9791354,71.0324594 74.2126063,68.8016211 76.9674045,68.8016211 L76.9674045,68.8016211 C79.7222027,68.8016211 81.9556735,71.0324594 81.9556735,73.7845122 L81.9556735,79.4787432 C81.9556735,82.2302944 79.7222027,84.4611327 76.9674045,84.4611327 L76.9674045,84.4611327 Z" id="Stroke-35" stroke="#222426" stroke-width="2" stroke-linecap="round" stroke-linejoin="round" sketch:type="MSShapeGroup"></path>
                <path d="M45.4200682,88.9830073 L45.4200682,88.9830073 C43.1936287,86.7591921 43.1936287,83.1538323 45.4200682,80.9300172 L56.0018081,70.3607498 C58.2282475,68.1369347 61.8378619,68.1369347 64.0643013,70.3607498 L64.0643013,70.3607498 C66.2907408,72.584565 66.2907408,76.1899248 64.0643013,78.4137399 L53.4825614,88.9830073 C51.256122,91.2068224 47.6465076,91.2068224 45.4200682,88.9830073" id="Fill-37" fill="#424549" sketch:type="MSShapeGroup"></path>
                <path d="M58.059896,92.7776898 C56.9489363,92.6156568 55.9228556,91.9439472 55.3312143,90.9913135 C53.2624789,87.6603564 57.3241112,85.1455842 59.3898332,83.0827987 C60.9477883,81.5261782 62.5062457,79.9700594 64.0642009,78.4134389 C66.2906404,76.1896238 66.2906404,72.584264 64.0642009,70.3604488 C61.8382637,68.1366337 58.2281471,68.1366337 56.0022099,70.3604488 L48.7227121,77.6308647" id="Stroke-39" stroke="#222426" stroke-width="2" stroke-linecap="round" stroke-linejoin="round" sketch:type="MSShapeGroup"></path>
                <path d="M62.0022457,109.485149 L65.7570081,109.485149" id="Stroke-41" stroke="#222426" stroke-width="2" stroke-linecap="round" stroke-linejoin="round" sketch:type="MSShapeGroup"></path>
                <path d="M70.910113,152 L70.910113,111.313162 C70.910113,110.104185 71.5243552,108.977479 72.5413955,108.322323 L72.5424,108.321822 C78.4105973,104.540383 81.9559247,98.0420066 81.9559247,91.0665611 L81.9559247,76.6315776" id="Stroke-43" stroke="#222426" stroke-width="2" stroke-linecap="round" stroke-linejoin="round" sketch:type="MSShapeGroup"></path>
                <path d="M92.9427731,21.3014706 L92.9427731,22.9187908" id="Stroke-45" stroke="#222426" stroke-width="2" stroke-linecap="round" stroke-linejoin="round" sketch:type="MSShapeGroup"></path>
                <path d="M92.9427731,27.4469861 L92.9427731,29.0643063" id="Stroke-47" stroke="#222426" stroke-width="2" stroke-linecap="round" stroke-linejoin="round" sketch:type="MSShapeGroup"></path>
                <path d="M96.8287211,25.1828383 L95.2094924,25.1828383" id="Stroke-49" stroke="#222426" stroke-width="2" stroke-linecap="round" stroke-linejoin="round" sketch:type="MSShapeGroup"></path>
                <path d="M90.6759534,25.1828383 L89.0567247,25.1828383" id="Stroke-51" stroke="#222426" stroke-width="2" stroke-linecap="round" stroke-linejoin="round" sketch:type="MSShapeGroup"></path>
                <path d="M4.57964484,59.8171168 L3.66355516,60.7321267" id="Stroke-53" stroke="#222426" stroke-width="2" stroke-linecap="round" stroke-linejoin="round" sketch:type="MSShapeGroup"></path>
                <path d="M0.915939013,63.4765545 L-0.000150672646,64.3915644" id="Stroke-55" stroke="#222426" stroke-width="2" stroke-linecap="round" stroke-linejoin="round" sketch:type="MSShapeGroup"></path>
                <path d="M4.57964484,64.3914139 L3.66355516,63.476404" id="Stroke-57" stroke="#222426" stroke-width="2" stroke-linecap="round" stroke-linejoin="round" sketch:type="MSShapeGroup"></path>
                <path d="M0.915939013,60.7319762 L-0.000150672646,59.8169663" id="Stroke-59" stroke="#222426" stroke-width="2" stroke-linecap="round" stroke-linejoin="round" sketch:type="MSShapeGroup"></path>
                <path d="M102.233851,78.448103 L101.317761,79.3631129" id="Stroke-61" stroke="#222426" stroke-width="2" stroke-linecap="round" stroke-linejoin="round" sketch:type="MSShapeGroup"></path>
                <path d="M98.5700951,82.1074904 L97.6540054,83.0225003" id="Stroke-63" stroke="#222426" stroke-width="2" stroke-linecap="round" stroke-linejoin="round" sketch:type="MSShapeGroup"></path>
                <path d="M102.233851,83.0223498 L101.317761,82.1073399" id="Stroke-65" stroke="#222426" stroke-width="2" stroke-linecap="round" stroke-linejoin="round" sketch:type="MSShapeGroup"></path>
                <path d="M98.5700951,79.3629624 L97.6540054,78.4479525" id="Stroke-67" stroke="#222426" stroke-width="2" stroke-linecap="round" stroke-linejoin="round" sketch:type="MSShapeGroup"></path>
                <path d="M103.829977,40.5575129 C103.829977,41.6295393 102.960093,42.4983974 101.886802,42.4983974 C100.814013,42.4983974 99.9441291,41.6295393 99.9441291,40.5575129 C99.9441291,39.4854865 100.814013,38.6166284 101.886802,38.6166284 C102.960093,38.6166284 103.829977,39.4854865 103.829977,40.5575129 L103.829977,40.5575129 Z" id="Stroke-69" stroke="#222426" stroke-width="2" stroke-linecap="round" stroke-linejoin="round" sketch:type="MSShapeGroup"></path>
                <path d="M8.53399821,88.0200898 C8.53399821,89.0921162 7.6641148,89.9609743 6.59082332,89.9609743 C5.51803408,89.9609743 4.64815067,89.0921162 4.64815067,88.0200898 C4.64815067,86.9480634 5.51803408,86.0792053 6.59082332,86.0792053 C7.6641148,86.0792053 8.53399821,86.9480634 8.53399821,88.0200898 L8.53399821,88.0200898 Z" id="Stroke-71" stroke="#222426" stroke-width="2" stroke-linecap="round" stroke-linejoin="round" sketch:type="MSShapeGroup"></path>
                <path d="M81.821826,38.0165545 C81.821826,38.7309043 81.2417363,39.3103102 80.5265435,39.3103102 C79.8113507,39.3103102 79.231261,38.7309043 79.231261,38.0165545 C79.231261,37.3022046 79.8113507,36.7227987 80.5265435,36.7227987 C81.2417363,36.7227987 81.821826,37.3022046 81.821826,38.0165545" id="Fill-73" fill="#222426" sketch:type="MSShapeGroup"></path>
                <path d="M106.420642,11.4443459 C106.420642,12.1586957 105.840552,12.7381017 105.12536,12.7381017 C104.410167,12.7381017 103.830077,12.1586957 103.830077,11.4443459 C103.830077,10.729996 104.410167,10.1505901 105.12536,10.1505901 C105.840552,10.1505901 106.420642,10.729996 106.420642,11.4443459" id="Fill-75" fill="#222426" sketch:type="MSShapeGroup"></path>
                <path d="M111.654457,55.1769531 C111.654457,55.891303 111.074368,56.4707089 110.359175,56.4707089 C109.643982,56.4707089 109.063892,55.891303 109.063892,55.1769531 C109.063892,54.4626033 109.643982,53.8831974 110.359175,53.8831974 C111.074368,53.8831974 111.654457,54.4626033 111.654457,55.1769531" id="Fill-77" fill="#222426" sketch:type="MSShapeGroup"></path>
                <path d="M17.6359821,1.75577558 C17.6359821,2.47012541 17.0558924,3.04953135 16.3406996,3.04953135 C15.6255067,3.04953135 15.045417,2.47012541 15.045417,1.75577558 C15.045417,1.04142574 15.6255067,0.462019802 16.3406996,0.462019802 C17.0558924,0.462019802 17.6359821,1.04142574 17.6359821,1.75577558" id="Fill-79" fill="#222426" sketch:type="MSShapeGroup"></path>
                <path d="M18.9312646,92.4535234 C18.9312646,93.1678733 18.3511749,93.7472792 17.6359821,93.7472792 C16.9207892,93.7472792 16.3406996,93.1678733 16.3406996,92.4535234 C16.3406996,91.7391736 16.9207892,91.1597677 17.6359821,91.1597677 C18.3511749,91.1597677 18.9312646,91.7391736 18.9312646,92.4535234" id="Fill-81" fill="#222426" sketch:type="MSShapeGroup"></path>
            </g>
        </g>
    </g>
</svg>